PathFileType	4	(x/y/z)	S05_M20_T01
DataRate	CameraRate	NumFrames	NumMarkers	Units	OrigDataRate	OrigDataStartFrame	OrigNumFrames
240	240	5	50	mm	240	406	541
Frame#	Time	Sternum			R.Acromium			L.Acromium			Top.Head			R.ASIS			L.ASIS			R.PSIS			L.PSIS			R.Great.Tro			L.Great.Tro			R.Iliac.Crest			L.Iliac.Crest			V.Sacral			R.Thigh.Upper.Post			R.Thigh.Lower.Ant			R.Thigh.Lower.Post			R.Thigh.Upper.Ant			R.Knee.Lat			R.Knee.Med			R.Shank.Upper.Post			R.Shank.Lower.Ant			R.Shank.Lower.Post			R.Shank.Upper.Ant			R.Ankle.Lat			R.Ankle.Med			R.Heel.Upper			R.Heel.Med			R.Heel.Lat			R.Toe.Lat			R.Toe.Med			R.Toe.Tip			L.Thigh.Upper.Post			L.Thigh.Lower.Ant			L.Thigh.Lower.Post			L.Thigh.Upper.Ant			L.Knee.Lat			L.Shank.Upper.Post			L.Shank.Lower.Ant			L.Shank.Lower.Post			L.Shank.Upper.Ant			L.Ankle.Lat			L.Ankle.Med			L.Heel.Upper			L.Heel.Med			L.Heel.Lat			L.Toe.Lat			L.Toe.Med			L.Toe.Tip			Cervical.Spine			Back			
		X1	Y1	Z1	X2	Y2	Z2	X3	Y3	Z3	X4	Y4	Z4	X5	Y5	Z5	X6	Y6	Z6	X7	Y7	Z7	X8	Y8	Z8	X9	Y9	Z9	X10	Y10	Z10	X11	Y11	Z11	X12	Y12	Z12	X13	Y13	Z13	X14	Y14	Z14	X15	Y15	Z15	X16	Y16	Z16	X17	Y17	Z17	X18	Y18	Z18	X19	Y19	Z19	X20	Y20	Z20	X21	Y21	Z21	X22	Y22	Z22	X23	Y23	Z23	X24	Y24	Z24	X25	Y25	Z25	X26	Y26	Z26	X27	Y27	Z27	X28	Y28	Z28	X29	Y29	Z29	X30	Y30	Z30	X31	Y31	Z31	X32	Y32	Z32	X33	Y33	Z33	X34	Y34	Z34	X35	Y35	Z35	X36	Y36	Z36	X37	Y37	Z37	X38	Y38	Z38	X39	Y39	Z39	X40	Y40	Z40	X41	Y41	Z41	X42	Y42	Z42	X43	Y43	Z43	X44	Y44	Z44	X45	Y45	Z45	X46	Y46	Z46	X47	Y47	Z47	X48	Y48	Z48	X49	Y49	Z49	X50	Y50	Z50	

406	1.6875	1375	1269.9	333.58	1277.9	1537.2	475.22	1288.2	1538.1	138.82	1263.9	1824.1	279.14	1297.6	1010.9	461.15	1325.2	1014.2	213.49	1106.5	1024.4	357.17	1118.1	1028.4	265.15	1218.4	929.15	520.83	1252.7	934.46	126.97	1207.1	1095.1	491.58	1240.4	1089.9	157.18	1098.2	991.27	321.41	1352.5	731.42	541.87	1430.1	680.39	498.43	1374.8	644.03	529.09	1403.4	765.68	509.98	1386.3	551.39	517.33	1408.6	535.42	386.51	1183.4	434.31	480.71	1178.8	344.01	471.05	1129.5	384.46	456.07	1233.6	394.32	494.94	1087.6	294.96	443.56	1128.4	303.74	361.16	1014.7	313.39	377.65	1000.7	288.44	344.7	994.08	284.67	409.67	1085.3	145.81	456.84	1130.1	139.8	343.78	1179.8	100.1	390.75	1292.9	695.47	144.76	1381.3	636.76	175.88	1316.8	605.04	165.44	1365.4	724.47	155.92	1344.9	520.01	176.45	1287.4	316.58	180.87	1354.8	260.53	190.83	1285.6	245.63	201.34	1351.7	329.89	175.42	1317	114.51	214.45	1349.8	131.41	300.03	1259.7	67.976	269.51	1271.3	43.698	302.12	1261.6	40.607	240.92	1443	37.732	184.89	1467.4	52.944	303.26	1530.1	64.303	249.04	1219.8	1570	310.89	1108.8	1289.6	311.39
407	1.6917	1379.7	1270.6	333.32	1282.9	1538	475.1	1293	1539.1	138.76	1268.8	1825	279.38	1302.6	1011.9	460.85	1329.7	1014.9	213.13	1111.3	1025.1	357.34	1122.7	1029.1	265.28	1224	930.28	520.96	1256.7	935.06	126.91	1212	1096	491.46	1244.8	1090.7	157.05	1102.9	991.95	321.6	1360.5	734.19	541.63	1438.4	684.04	497.68	1383.8	647.03	528.76	1410.7	769.01	509.31	1396.3	554.34	516.79	1418	538.75	385.87	1195	433.98	480.21	1192	343.59	470.77	1142	383.15	455.69	1245.9	394.84	494.5	1101.6	292.9	443.21	1142.1	302.5	360.77	1027.9	309.65	377.37	1014.6	284.3	344.44	1008.1	280.49	409.41	1102.7	144	456.81	1147.5	138.86	343.7	1198.2	100.47	390.77	1295.6	695.85	144.87	1383.5	636.58	175.85	1318.9	605.28	165.55	1368.2	724.38	155.87	1346.4	520.02	176.55	1288.2	316.77	180.99	1355.5	260.5	190.96	1286.2	245.83	201.48	1352.6	329.87	175.54	1317.3	114.59	214.61	1349.9	131.38	300.26	1259.7	68.093	269.57	1271.3	43.707	302.18	1261.6	40.733	240.97	1443.1	37.739	184.91	1467.5	52.701	303.33	1530.2	64.011	249.09	1224.8	1570.8	310.81	1113.6	1290.5	311.28
408	1.6958	1384.5	1271.4	333.07	1288	1538.7	474.99	1297.7	1540.1	138.7	1273.8	1825.9	279.63	1307.5	1012.9	460.55	1334.2	1015.6	212.79	1116	1025.8	357.5	1127.2	1029.8	265.42	1229.6	931.38	521.08	1260.7	935.64	126.86	1216.9	1096.9	491.35	1249.3	1091.4	156.92	1107.6	992.61	321.78	1368.4	736.92	541.39	1446.6	687.65	496.93	1392.7	650.01	528.42	1417.9	772.28	508.65	1406.2	557.29	516.25	1427.2	542.06	385.25	1206.6	433.54	479.7	1205.1	343.1	470.51	1154.4	381.73	455.31	1258.2	395.3	494.08	1115.6	290.71	442.88	1156	301.13	360.4	1041.3	305.72	377.1	1028.7	279.96	344.18	1022.3	276.13	409.16	1120.2	142.14	456.82	1165.1	137.87	343.67	1216.7	100.85	390.85	1298.2	696.22	144.97	1385.8	636.4	175.83	1321	605.51	165.66	1371	724.28	155.83	1348	520.03	176.66	1289.1	316.96	181.12	1356.2	260.48	191.09	1286.8	246.04	201.61	1353.5	329.85	175.64	1317.5	114.67	214.76	1350	131.35	300.48	1259.7	68.202	269.63	1271.3	43.717	302.24	1261.6	40.853	241.01	1443.1	37.749	184.94	1467.6	52.462	303.4	1530.3	63.727	249.14	1229.7	1571.6	310.74	1118.4	1291.3	311.17
409	1.7	1389.2	1272.1	332.82	1293	1539.4	474.89	1302.5	1541	138.66	1278.8	1826.7	279.88	1312.4	1013.8	460.27	1338.8	1016.3	212.47	1120.7	1026.4	357.67	1131.8	1030.5	265.56	1235.2	932.45	521.2	1264.7	936.2	126.82	1221.9	1097.8	491.24	1253.7	1092	156.79	1112.3	993.24	321.97	1376.2	739.62	541.14	1454.7	691.21	496.18	1401.4	652.96	528.08	1425	775.5	507.99	1416	560.22	515.73	1436.4	545.33	384.64	1218.1	433	479.18	1218.2	342.53	470.29	1166.9	380.19	454.93	1270.4	395.7	493.69	1129.7	288.41	442.57	1169.8	299.63	360.06	1054.8	301.6	376.84	1042.9	275.44	343.94	1036.5	271.6	408.92	1137.9	140.26	456.88	1182.8	136.85	343.69	1235.4	101.25	391	1300.8	696.59	145.09	1388	636.2	175.81	1323	605.73	165.78	1373.8	724.17	155.8	1349.4	520.04	176.76	1289.9	317.16	181.24	1356.9	260.47	191.21	1287.4	246.24	201.75	1354.3	329.84	175.74	1317.8	114.74	214.92	1350.1	131.3	300.71	1259.7	68.304	269.69	1271.3	43.726	302.29	1261.6	40.966	241.07	1443.2	37.761	184.96	1467.7	52.228	303.47	1530.4	63.451	249.19	1234.7	1572.4	310.69	1123.2	1292.2	311.08
410	1.7042	1394	1272.8	332.57	1298.1	1540.1	474.8	1307.2	1541.8	138.63	1283.8	1827.5	280.14	1317.4	1014.7	459.99	1343.3	1016.9	212.16	1125.4	1027	357.84	1136.3	1031.1	265.7	1240.8	933.49	521.32	1268.6	936.74	126.8	1226.8	1098.6	491.13	1258.1	1092.7	156.68	1117	993.85	322.15	1383.9	742.28	540.89	1462.6	694.7	495.43	1410	655.87	527.73	1432.1	778.65	507.33	1425.5	563.13	515.2	1445.4	548.57	384.05	1229.5	432.36	478.65	1231.3	341.89	470.1	1179.4	378.54	454.55	1282.6	396.04	493.31	1143.9	286	442.28	1183.8	298.03	359.74	1068.4	297.31	376.59	1057.2	270.76	343.71	1051	266.91	408.7	1155.6	138.35	456.98	1200.6	135.81	343.76	1254.1	101.68	391.21	1303.4	696.94	145.2	1390.3	636	175.81	1325.1	605.94	165.91	1376.6	724.05	155.77	1350.9	520.04	176.86	1290.7	317.35	181.35	1357.5	260.45	191.32	1288	246.44	201.89	1355.2	329.82	175.83	1318	114.82	215.06	1350.2	131.26	300.93	1259.7	68.397	269.77	1271.3	43.736	302.35	1261.6	41.07	241.13	1443.2	37.775	184.99	1467.7	52	303.54	1530.5	63.183	249.24	1239.6	1573.1	310.65	1128	1293	310.99
